<svg xmlns="http://www.w3.org/2000/svg" version="1.1" width="869" height="864">
<path d="M0.0,0.0 L869.0,0.0 L869.0,864.0 L0.0,864.0 Z" fill="#FEFEFE" transform="translate(0,0)" />
<path d="M0.0,0.0 L30.0,0.0 L48.0,2.0 L70.0,7.0 L88.0,13.0 L106.0,21.0 L120.0,29.0 L136.0,40.0 L149.0,51.0 L165.0,67.0 L174.0,78.0 L186.0,95.0 L198.0,118.0 L206.0,138.0 L212.0,161.0 L214.0,172.0 L216.0,194.0 L215.0,222.0 L212.0,242.0 L205.0,267.0 L196.0,288.0 L185.0,308.0 L175.0,322.0 L166.0,333.0 L154.0,346.0 L143.0,356.0 L130.0,366.0 L111.0,378.0 L88.0,389.0 L64.0,397.0 L44.0,401.0 L24.0,403.0 L5.0,403.0 L-21.0,400.0 L-42.0,395.0 L-64.0,387.0 L-80.0,379.0 L-96.0,370.0 L-112.0,358.0 L-122.0,349.0 L-139.0,332.0 L-152.0,315.0 L-163.0,297.0 L-173.0,276.0 L-180.0,256.0 L-185.0,234.0 L-187.0,216.0 L-187.0,186.0 L-184.0,162.0 L-178.0,140.0 L-172.0,124.0 L-162.0,103.0 L-150.0,84.0 L-139.0,71.0 L-132.0,63.0 L-116.0,47.0 L-100.0,35.0 L-82.0,24.0 L-59.0,13.0 L-33.0,5.0 L-10.0,1.0 Z" fill="#EC678A" transform="translate(420,231)" />
<path d="M0.0,0.0 L14.0,0.0 L24.0,5.0 L32.0,12.0 L39.0,20.0 L117.0,98.0 L123.0,109.0 L124.0,113.0 L124.0,123.0 L120.0,133.0 L113.0,141.0 L107.0,145.0 L101.0,147.0 L90.0,147.0 L80.0,143.0 L70.0,134.0 L61.0,125.0 L61.0,123.0 L59.0,123.0 L52.0,115.0 L-17.0,46.0 L-21.0,38.0 L-22.0,34.0 L-22.0,24.0 L-18.0,14.0 L-12.0,6.0 L-4.0,1.0 Z" fill="#EC678A" transform="translate(626,600)" />
<path d="M0.0,0.0 L13.0,0.0 L22.0,4.0 L28.0,9.0 L33.0,18.0 L35.0,27.0 L34.0,37.0 L29.0,47.0 L-67.0,143.0 L-77.0,147.0 L-89.0,147.0 L-99.0,142.0 L-104.0,137.0 L-109.0,130.0 L-111.0,124.0 L-111.0,112.0 L-107.0,102.0 L-96.0,90.0 L-11.0,5.0 L-3.0,1.0 Z" fill="#EC678A" transform="translate(230,600)" />
<path d="M0.0,0.0 L137.0,0.0 L148.0,4.0 L155.0,10.0 L161.0,22.0 L161.0,35.0 L156.0,45.0 L151.0,50.0 L143.0,55.0 L134.0,57.0 L4.0,57.0 L-8.0,54.0 L-16.0,48.0 L-22.0,38.0 L-23.0,35.0 L-23.0,22.0 L-17.0,10.0 L-10.0,4.0 Z" fill="#EC678A" transform="translate(708,404)" />
<path d="M0.0,0.0 L11.0,0.0 L21.0,4.0 L26.0,8.0 L32.0,17.0 L34.0,24.0 L34.0,32.0 L30.0,43.0 L23.0,52.0 L21.0,52.0 L21.0,54.0 L13.0,61.0 L6.0,69.0 L-18.0,93.0 L-20.0,93.0 L-20.0,95.0 L-28.0,102.0 L-51.0,125.0 L-56.0,131.0 L-64.0,138.0 L-69.0,142.0 L-80.0,146.0 L-87.0,146.0 L-99.0,142.0 L-106.0,136.0 L-112.0,124.0 L-112.0,111.0 L-108.0,101.0 L-99.0,91.0 L-53.0,45.0 L-45.0,38.0 L-14.0,7.0 L-4.0,1.0 Z" fill="#EC678A" transform="translate(716,119)" />
<path d="M0.0,0.0 L11.0,0.0 L21.0,4.0 L33.0,15.0 L108.0,90.0 L113.0,94.0 L120.0,104.0 L123.0,114.0 L122.0,125.0 L117.0,135.0 L109.0,142.0 L101.0,145.0 L87.0,145.0 L77.0,140.0 L64.0,128.0 L34.0,98.0 L34.0,96.0 L32.0,96.0 L32.0,94.0 L30.0,94.0 L30.0,92.0 L28.0,92.0 L28.0,90.0 L24.0,88.0 L10.0,74.0 L10.0,72.0 L8.0,72.0 L8.0,70.0 L6.0,70.0 L6.0,68.0 L4.0,68.0 L-3.0,60.0 L-18.0,45.0 L-22.0,37.0 L-23.0,33.0 L-23.0,25.0 L-20.0,15.0 L-11.0,5.0 L-4.0,1.0 Z" fill="#EC6789" transform="translate(142,119)" />
<path d="M0.0,0.0 L14.0,0.0 L24.0,4.0 L31.0,11.0 L36.0,23.0 L36.0,156.0 L32.0,167.0 L26.0,174.0 L14.0,180.0 L1.0,180.0 L-8.0,176.0 L-15.0,170.0 L-20.0,161.0 L-21.0,157.0 L-21.0,22.0 L-15.0,10.0 L-7.0,3.0 Z" fill="#EB6689" transform="translate(427,1)" />
<path d="M0.0,0.0 L136.0,0.0 L146.0,4.0 L154.0,11.0 L158.0,18.0 L159.0,22.0 L159.0,35.0 L154.0,45.0 L149.0,50.0 L141.0,55.0 L137.0,56.0 L-2.0,56.0 L-12.0,52.0 L-17.0,48.0 L-21.0,42.0 L-23.0,36.0 L-23.0,21.0 L-18.0,11.0 L-13.0,6.0 L-7.0,2.0 Z" fill="#EC6689" transform="translate(24,404)" />
<path d="M0.0,0.0 L13.0,0.0 L25.0,6.0 L32.0,15.0 L34.0,21.0 L35.0,55.0 L35.0,145.0 L33.0,160.0 L29.0,169.0 L20.0,177.0 L14.0,179.0 L-3.0,179.0 L-11.0,175.0 L-18.0,168.0 L-22.0,157.0 L-22.0,24.0 L-19.0,15.0 L-13.0,7.0 L-3.0,1.0 Z" fill="#EC678A" transform="translate(428,684)" />
<path d="M0.0,0.0 L0.0,3.0 L-7.0,10.0 L-9.0,9.0 L-3.0,2.0 Z" fill="#E56B8B" transform="translate(419,688)" />
</svg>