<?xml version='1.0' encoding='utf-8'?>
<svg xmlns="http://www.w3.org/2000/svg" version="1.0" width="1044px" height="981px" viewBox="0 0 1044 981" preserveAspectRatio="xMidYMid meet">
 <g fill="#FFFFFF">
  <path d="M521.5 961.1 c-0.6 -0.5 -4.3 -2.8 -8.4 -5.1 -10.1 -5.6 -45.9 -26.4 -80.1 -46.4 -15.5 -9.1 -31.2 -18.3 -35.1 -20.5 -10.7 -6.1 -28 -16.1 -89.5 -51.7 -31.2 -18.2 -75.9 -44 -99.4 -57.4 -23.3 -13.3 -48.7 -28.1 -56.4 -32.5 -7.6 -4.5 -16.2 -9.5 -19.1 -11.1 l-5.1 -3 0 -226.1 c0 -214.2 0.1 -226.3 1.8 -227.7 0.9 -0.8 15.7 -9.4 32.8 -19.1 17.1 -9.7 42.5 -24 56.4 -31.9 47 -26.7 51.1 -28.9 54.2 -28.9 2.3 0 3.1 -0.5 3.4 -2.1 0.2 -1.6 8.9 -6.9 36.4 -22.7 41.3 -23.6 42.1 -23.9 46.3 -16.6 1.3 2.2 6.9 10.2 12.7 17.7 13.1 17.3 13.2 18.7 4.2 23.6 -3.5 1.9 -11.9 6.6 -18.8 10.7 -9.6 5.5 -13.5 7.2 -16.4 7.2 -3.3 0 -36.6 -7.1 -52.1 -11.3 -3.2 -0.8 -6 -1.4 -6.1 -1.2 -0.2 0.2 5.6 6.1 13.1 13.2 17.9 17.3 17.9 16.1 -1.2 27.1 -8.1 4.6 -21.6 12.4 -30 17.3 -8.4 4.8 -29.8 17.2 -47.5 27.5 -17.7 10.2 -33.3 19.3 -34.8 20.2 l-2.8 1.6 0 195.4 0 195.4 33.3 19.1 c18.4 10.6 45.1 26 59.4 34.3 14.2 8.3 26.2 15.1 26.4 15.1 0.9 0 31.2 -24.3 39.4 -31.6 10.8 -9.6 12.2 -9.6 26.2 0.7 5.7 4.3 20.1 14.4 31.7 22.8 18.7 13.3 21.8 15.9 26.2 21.9 20.2 27.8 46.1 63.1 55.2 75 5.9 7.8 11.6 15.6 12.5 17.3 1.3 2.2 6.2 5.7 18.2 13 18.5 11.2 23.3 13.8 23.7 13.2 0.3 -0.4 12.1 -41.2 27.1 -93.5 l5.7 -20.1 3.5 0 c2.8 0 9.7 3.8 32.6 17.7 16 9.7 43 25.8 59.8 35.9 30.5 18.1 30.6 18.3 30.9 21.8 l0.3 3.5 -49.7 29 c-27.4 15.9 -53.7 31.3 -58.6 34.2 -48.8 28.5 -51.9 30.1 -56.9 30.1 -2.5 0 -4.8 -0.4 -5.3 -0.9z" />
  <path d="M512.4 884.1 c-10.1 -11.9 -47.8 -61.3 -69 -90.7 -12.5 -17.3 -17.9 -23 -29 -30.9 -2.9 -2.1 -13.5 -9.7 -23.7 -17 -27.2 -19.6 -34 -24.4 -36.6 -25.7 -2.7 -1.4 -4.3 -4.9 -10.5 -22.9 -2.6 -7.3 -4.8 -13.9 -5.1 -14.7 -0.4 -1.2 -0.9 -1 -2.5 1 -2.3 2.9 -22.9 33.9 -29.6 44.4 -4 6.3 -4.6 7 -7.5 7 -3.1 0 -3.3 -0.2 -3.8 -4.2 -0.3 -2.4 -1.5 -11.8 -2.6 -21.1 -1.1 -9.2 -3.4 -25.7 -5 -36.7 l-3.2 -19.8 4.5 -23.2 c2.5 -12.8 4.8 -25.5 5.2 -28.5 l0.7 -5.3 23.3 -22.8 c12.9 -12.6 29.6 -29 37.2 -36.4 17.7 -17.4 17 -17.3 34.5 -5.9 6.6 4.3 20.5 13.1 30.7 19.5 28.8 17.8 28.6 17.6 31.6 22.9 3.5 6 13.5 22.4 28.6 46.3 31.6 50.4 36.1 57.7 38 63.3 1.1 3.3 6.3 17.1 11.6 30.6 20 51.4 23.2 60.7 23.2 65.7 0 2.9 -2.8 14.4 -7.3 30.3 -4.1 14.1 -10.3 36.5 -13.9 49.8 -9 33.4 -7.9 30.6 -11.9 30.6 -2.8 0 -4.1 -0.9 -8.1 -5.6z" />
  <path d="M716 845.6 c0.4 -3.4 4.5 -13.3 13.9 -33.4 7.3 -15.7 13.5 -29.8 13.7 -31 0.3 -2.5 23.4 -16.4 104.8 -63.1 l25.4 -14.6 0.1 -65.9 0 -65.9 6 -4.7 c18 -14.1 27.7 -21.9 33.1 -26.7 4.5 -4 6.8 -5.2 9.2 -5.2 l3.1 0 0 99.2 0 99.3 -25.4 14.8 c-14 8.2 -38 22.1 -53.2 30.9 -15.2 8.8 -33.2 19.3 -40 23.2 -16.1 9.4 -40.2 23.2 -64.2 37 -15.5 8.9 -20.1 11 -23.1 11 l-4 0 0.5 -4.6z" />
  <path d="M668.7 835.3 c-13 -7.7 -30.7 -18.3 -39.4 -23.4 -8.7 -5.1 -26 -15.3 -38.6 -22.6 -12.5 -7.3 -23.2 -13.8 -23.8 -14.4 -0.6 -0.7 -5 -11.7 -9.8 -24.4 -4.7 -12.8 -12 -31.8 -15.9 -42.3 -4.1 -10.5 -7.3 -20.6 -7.3 -22.4 0 -3.3 0.2 -3.5 3.4 -3.5 1.9 0 9.6 2.5 17.1 5.5 7.5 3.1 15.6 6.4 18.1 7.3 2.5 1 23.1 9.4 46 18.8 22.8 9.4 42 17.2 42.6 17.5 1 0.4 11.4 -12.9 23.4 -29.8 4.4 -6.3 4.8 -6.6 8.3 -6.3 l3.6 0.3 3.8 10.4 c16.5 45.4 26.8 75.3 27.3 79.3 0.5 4.5 0 6 -11.4 29.7 -6.5 13.7 -12.9 27.1 -13.9 29.8 -1.9 4.3 -2.2 4.6 -5.8 4.6 -3.1 0 -8 -2.6 -27.5 -13.9z" />
  <path d="M631.7 707.3 c-18.7 -7.8 -77 -31.3 -101.1 -40.7 -4.9 -2 -7.7 -3.8 -10.1 -6.6 -3.2 -3.9 -18.9 -28 -31.9 -48.9 -3.6 -5.7 -8.4 -13.2 -10.8 -16.8 -3.2 -4.7 -4.3 -7.4 -4.3 -10.1 0 -3.7 0.1 -3.8 3.6 -3.8 2.1 0 14.4 4.2 30.8 10.5 31.2 12 48.2 18.2 49.9 18.2 1.1 0 7.9 -9.9 15.5 -22.4 2.8 -4.5 3.6 -5.2 6.2 -5.2 2.7 0 5.4 2.2 18 13.9 8.2 7.6 25.3 23.5 38.1 35.3 12.8 11.8 28.9 27 35.8 33.7 16.1 15.6 16 14.7 4.2 30.7 -4.6 6.2 -10 13.7 -12 16.6 -3.1 4.4 -4 5.1 -6.6 5 -1.7 0 -13.1 -4.3 -25.3 -9.4z" />
  <path d="M233.3 632.5 c0 -2.2 4.4 -22.3 17.8 -80.4 l6.1 -26.7 14.2 -18.8 c7.8 -10.3 16.9 -22.1 20.2 -26.3 l5.9 -7.6 -18.6 7.9 c-34.2 14.6 -54.4 22.5 -57.4 22.5 -2.9 0 -3.1 -0.2 -3.1 -3.7 0 -2.1 1 -5.3 2.1 -7.2 7.8 -12.9 45 -70.6 48 -74.6 4.3 -5.6 10.6 -10 39.8 -27.7 11.2 -6.7 21.7 -13.1 23.2 -14.3 l3 -2 -3.5 0 c-1.9 0.1 -20.1 -1.2 -40.2 -2.7 l-36.9 -2.8 0 -3.8 c0 -3.2 0.5 -4.1 3.1 -5.4 1.6 -0.9 8 -4.8 14 -8.7 53.6 -33.9 46.6 -30.1 68.4 -37.3 35.9 -11.9 48.9 -14.6 52 -11 0.7 0.9 10.2 8.8 21.1 17.5 10.9 8.8 22.2 18 25.3 20.5 6.4 5.1 16.6 10.2 33.1 16.1 l11.9 4.3 0.3 3.6 c0.3 3.1 0 3.7 -2 4.1 -1.9 0.4 -38.9 3.3 -94.4 7.2 -4.5 0.3 -8.2 0.9 -8.2 1.3 0 0.4 2.6 1.9 5.7 3.3 5.9 2.7 30.9 14.3 87.7 40.9 18.5 8.6 36.2 16.8 39.2 18.2 5.5 2.3 5.7 2.5 5.7 6.3 0 4 -0.1 4.1 -13.1 13.6 -21.1 15.4 -26.6 19.4 -30.1 21.6 -1.8 1.1 -3.5 2.8 -3.8 3.7 -1.2 4 -15.8 50.8 -18.3 58.5 -2.7 8.1 -2.9 8.4 -5.9 8.7 -3.8 0.4 -6.2 -1.1 -47.4 -28.2 l-26 -17.1 -10.1 9.6 c-30.2 28.7 -64 61.4 -91.3 88.5 -29.1 28.9 -30.8 30.5 -34.3 30.5 -3.2 0 -3.7 -0.3 -3.7 -2.2z" />
  <path d="M720.7 629.5 c0 -2.4 2.2 -6.8 8 -16.1 4.3 -7 8.7 -13.5 9.5 -14.4 0.9 -1 1.3 -2.3 1 -3 -1.8 -4.5 -44.6 -54.8 -49.1 -57.6 -1.6 -1 -30.4 -9.8 -60.3 -18.3 -9.5 -2.8 -18.2 -5.4 -19.4 -5.8 -1.4 -0.6 -3.8 -4.7 -7.4 -13 -3.5 -8.1 -5.9 -12.4 -7.2 -13 -2.7 -1.1 -23.8 -4 -56.9 -7.8 -33.2 -3.9 -30.6 -3.3 -30.6 -7.4 0 -3.3 0.5 -3.8 12.2 -11.5 23.6 -15.8 54.6 -38.3 53.8 -39.1 -0.2 -0.2 -8.1 3 -17.5 7 -11 4.7 -18.5 7.4 -20.8 7.4 -2.6 0 -10 -3 -24.8 -10 -11.7 -5.4 -28.3 -13.3 -37 -17.4 -8.7 -4.1 -21.3 -10.1 -28 -13.3 l-12.2 -5.9 0.3 -3.6 0.3 -3.7 56.5 -4.4 c31.1 -2.4 56.3 -4.7 55.9 -5 -0.4 -0.4 -16.7 -6.5 -36.3 -13.5 -61.4 -22.2 -56.9 -20.3 -70.5 -31.4 -6.5 -5.4 -28.5 -23.8 -48.8 -40.9 -20.3 -17.1 -41.6 -35.1 -47.6 -39.9 -9.8 -8.1 -10.6 -9.1 -10.6 -12.3 l0 -3.5 6.1 0.5 c6.3 0.5 79 24.2 164.1 53.5 21.2 7.3 38.3 13.1 38.1 13.1 -0.1 -0.2 -4.6 -3.9 -10.1 -8.2 -5.4 -4.4 -11.7 -9.6 -13.8 -11.5 -4 -3.4 -32.3 -20.2 -59.5 -35.4 -8 -4.4 -18.4 -10.5 -22.8 -13.2 -9.6 -6 -11.5 -8.2 -41.4 -47.9 -10.8 -14.2 -21 -27.7 -22.6 -30 -1.8 -2.3 -7.3 -14 -12.6 -26.3 -23.2 -55.3 -26.7 -64 -27.2 -68.4 l-0.5 -4.7 3.5 0 c2.9 0 4.9 1.5 16.2 12.2 41.3 38.9 58.1 54.6 65.6 61 4.6 4.1 17.6 16.1 28.9 27 23.7 22.8 13.8 17.4 80.9 44.2 49.6 19.8 50.6 20.3 68.7 37.6 6 5.6 13.5 12.8 16.7 15.8 l5.8 5.4 -3.4 -4.9 c-11.7 -16.8 -20.4 -28.4 -24.9 -33.1 -3 -3 -14.6 -13.6 -25.9 -23.7 -31.7 -28.1 -28.9 -25 -31.6 -34.4 -3.4 -11.7 -20.4 -92.4 -21 -99.8 l-0.6 -6.2 3.6 0 c3.4 0 4.2 0.6 11.3 9.6 4.3 5.3 21.9 28.7 39.4 52 l31.6 42.3 29.7 16.8 c16.2 9.3 40.4 23.2 53.8 31 13.3 7.7 26.1 15 28.3 16.1 2.7 1.4 5.6 4.3 8.5 8.3 6.4 9 34.4 49.6 44.3 64.2 7 10.4 10.4 14.2 19.9 22.7 16.4 14.8 24.2 21.6 32.3 28 l7.1 5.6 0 17.1 0 17.2 24 17.7 c29 21.5 36.8 27 37.9 27 0.5 0 2.7 -2.7 4.7 -6 3.8 -5.7 4 -5.9 7.7 -5.6 l4 0.3 10.1 16.8 c5.6 9.3 12.1 20.6 14.4 25 4.2 8.1 4.3 8.4 3.7 15.8 -0.7 10.3 -6.8 33.7 -11 42.2 -3.1 6 -4.6 7.9 -13.1 14.8 -17.6 14.4 -21.8 17.3 -25 17.3 -1.6 0 -3.1 -0.1 -3.1 -0.2 -0.1 -0.2 -0.6 -6.5 -1.3 -14 l-1.1 -13.8 -6.4 -4.3 c-3.6 -2.4 -8.6 -5.4 -11.2 -6.7 l-4.7 -2.5 -16.5 2.6 c-9.1 1.4 -18.3 3 -20.5 3.5 -2.2 0.5 -6.5 1 -9.8 1 l-5.7 0 0.3 -14.7 0.4 -14.8 -13.8 -9.8 c-7.6 -5.3 -14.8 -10.3 -16 -10.9 -2 -1.1 -28.1 -5 -56.6 -8.7 l-13.3 -1.7 -8.1 -8.6 c-7.2 -7.6 -21.6 -19.8 -23.3 -19.8 -0.4 0 0.3 1.7 1.6 3.8 1.3 2 7.6 13.8 14.1 26.2 13.4 25.8 9.4 22 34.3 32 7.4 3 14.9 6.4 16.5 7.6 1.7 1.1 10.1 12.6 18.7 25.3 l15.7 23.2 6.3 -0.1 c3.5 -0.1 9.4 -1.1 13.2 -2.3 3.9 -1.2 8.2 -2.1 9.7 -2.1 l2.6 0 0 12.2 c-0.1 7.9 -0.6 13.4 -1.5 16 -0.8 2.2 -1.5 4.1 -1.5 4.2 0 0.1 1.5 0 3.3 -0.3 7.4 -1.3 14.6 -3.9 23.7 -8.4 5.9 -3 11 -4.8 13.1 -4.8 3.3 0 3.4 0.1 3.4 4.3 0 5.7 -3.4 18.6 -7 26.4 -3.8 8 -13.2 22.3 -16 24.2 -3.2 2 -11.7 4 -36 8.4 -11.9 2.2 -28.1 5.3 -36 6.9 -8 1.7 -16.5 3 -19.1 3 -4.4 0 -4.5 0 -4.5 -3.3z m29.1 -244 c-1 -1.2 -7.6 -7.5 -14.6 -14 l-12.7 -12 -13 -5.1 c-7.2 -2.9 -13.1 -5 -13.3 -4.8 -0.2 0.1 3.1 5.4 7.2 11.8 4.1 6.3 8.3 13.1 9.4 15.2 l2 3.7 16.6 3.6 c9.1 2 17.4 3.7 18.4 3.8 1.9 0.1 1.9 0.1 0 -2z" />
  <path d="M529.9 587.6 c-19.5 -7.9 -46.1 -18 -61 -23.1 -9 -3.2 -9.2 -3.3 -9.2 -6.3 0 -1.7 5 -18.4 11.2 -37.2 l11.2 -34.1 2.9 -0.3 c1.7 -0.2 20.6 1.9 42 4.6 21.5 2.7 44.5 5.4 51.2 6.1 l12.1 1.2 0 4 c0 4.8 -3.2 9.3 -17.2 24.1 -5.2 5.6 -9.5 10.7 -9.5 11.2 0 0.6 1.4 6.7 3 13.5 4.2 17.2 4.1 18.8 -2.1 29 -8.7 14.6 -8.9 14.8 -12.8 14.7 -2 0 -11.5 -3.3 -21.8 -7.4z" />
  <path d="M912.8 421.5 c-10.7 -14.6 -17.4 -23.5 -20.7 -27.2 l-3.3 -3.7 -3.3 6.1 c-3.2 5.9 -3.5 6.1 -7.4 6.4 l-4.3 0.3 0 -45.9 0 -45.9 -8.1 -4.7 c-4.5 -2.6 -10.2 -5.9 -12.7 -7.4 -2.5 -1.5 -30.1 -17.5 -61.3 -35.6 l-56.8 -32.8 -8.4 -8.8 c-7.7 -8.1 -9.8 -9.7 -24.7 -18 -15.5 -8.8 -68.2 -39.2 -87.8 -50.7 -10.2 -6 -13.5 -9.7 -28.8 -30.5 -4.7 -6.5 -14.7 -20.2 -22.1 -30.4 -10.4 -14.1 -13.5 -19.2 -13.5 -21.5 0 -2.9 0.2 -3.1 3.8 -3.1 2.7 0 5.9 1.4 12.1 5 12 7.1 47.8 28 83 48.1 36.6 21 69.2 39.7 94.9 54.6 10.6 6.1 35.3 20.4 54.9 31.6 31.2 17.9 80.4 46.2 115.2 66.2 l11.4 6.5 0.3 74.3 0.2 74.3 -3.5 0 c-3.2 0 -4 -0.6 -9.1 -7.6z" />
  <path d="M450.8 141.3 c-4.1 -3.9 -11.6 -10.5 -16.5 -14.9 -8.1 -7 -9.2 -8.3 -9.2 -11.2 0 -3.2 0.4 -3.5 15.1 -11.9 8.2 -4.8 22.9 -13.3 32.5 -19 13.9 -8.2 18.2 -10.3 20.7 -10 l3.2 0.3 4.7 20.3 c2.6 11.2 4.7 22.3 4.7 24.8 l0.1 4.5 -20.3 12.1 c-25.1 14.9 -24.5 14.8 -35.1 4.9z" />
 </g>
 </svg>