<?xml version="1.0" encoding="UTF-8"?>
<!DOCTYPE svg PUBLIC "-//W3C//DTD SVG 1.1//EN" "http://www.w3.org/Graphics/SVG/1.1/DTD/svg11.dtd">
<svg xmlns="http://www.w3.org/2000/svg" version="1.1" width="3505px" height="505px" style="shape-rendering:geometricPrecision; text-rendering:geometricPrecision; image-rendering:optimizeQuality; fill-rule:evenodd; clip-rule:evenodd" xmlns:xlink="http://www.w3.org/1999/xlink">
<g><path style="opacity:1" fill="#e0194a" d="M 151.5,-0.5 C 152.5,-0.5 153.5,-0.5 154.5,-0.5C 176.635,20.8 198.969,41.9667 221.5,63C 225.674,65.5877 230.007,67.921 234.5,70C 251.661,76.6093 268.661,83.6093 285.5,91C 297.937,101.435 309.771,112.602 321,124.5C 321.667,123.833 321.667,123.167 321,122.5C 313.333,111.833 305.667,101.167 298,90.5C 286.917,80.1484 275.917,69.8151 265,59.5C 260.179,39.5581 255.679,19.5581 251.5,-0.5C 252.5,-0.5 253.5,-0.5 254.5,-0.5C 268.926,19.1046 283.592,38.6046 298.5,58C 320.593,70.4347 342.427,83.268 364,96.5C 373.581,109.993 382.914,123.66 392,137.5C 401.578,147.769 411.911,157.102 423,165.5C 423.186,172.414 423.686,179.247 424.5,186C 436.028,194.361 447.695,202.528 459.5,210.5C 461.273,207.94 463.273,205.607 465.5,203.5C 471.736,211.623 477.236,220.29 482,229.5C 483.347,250.144 474.847,265.144 456.5,274.5C 455.238,269.224 454.238,263.891 453.5,258.5C 450.632,256.468 447.632,254.635 444.5,253C 433.776,252.936 423.11,253.769 412.5,255.5C 412.195,250.238 412.529,245.072 413.5,240C 407.438,234.642 400.771,230.309 393.5,227C 381.108,225.278 368.774,223.278 356.5,221C 349.853,212.778 342.186,206.611 333.5,202.5C 339.833,213.833 346.167,225.167 352.5,236.5C 359.67,240.282 367.003,243.782 374.5,247C 381.083,255.084 387.083,263.584 392.5,272.5C 398.605,273.902 404.605,273.569 410.5,271.5C 411.825,277.6 411.492,283.6 409.5,289.5C 412.91,289.543 416.243,289.043 419.5,288C 424.314,285.59 429.314,283.756 434.5,282.5C 432.895,293.542 428.229,303.042 420.5,311C 403.983,315.004 387.316,318.17 370.5,320.5C 373.668,313.97 377.335,307.636 381.5,301.5C 373.065,290.229 364.065,279.396 354.5,269C 339.325,263.664 323.992,258.831 308.5,254.5C 305.4,249.655 302.4,244.821 299.5,240C 284.225,237.562 268.891,235.562 253.5,234C 252.692,233.692 252.025,233.192 251.5,232.5C 266.154,222.164 280.487,211.331 294.5,200C 284.714,203.215 275.048,207.048 265.5,211.5C 246.564,203.032 227.897,194.032 209.5,184.5C 232.049,181.393 254.716,179.226 277.5,178C 257.752,170.629 238.085,162.962 218.5,155C 197.018,136.762 175.351,118.762 153.5,101C 152.289,100.107 152.289,99.2739 153.5,98.5C 194.72,111.741 235.72,125.241 276.5,139C 257.119,122.972 236.119,109.305 213.5,98C 208.748,95.2523 204.581,91.7523 201,87.5C 191.91,74.9873 182.576,62.6539 173,50.5C 165.721,33.4826 158.555,16.4826 151.5,-0.5 Z M 351.5,160.5 C 358.247,162.695 364.914,165.195 371.5,168C 378.025,173.769 384.358,179.769 390.5,186C 381.318,185.263 372.318,183.43 363.5,180.5C 359.489,173.806 355.489,167.139 351.5,160.5 Z"/></g>
<g><path style="opacity:1" fill="#e0194a" d="M 3003.5,3.5 C 3030.5,3.5 3057.5,3.5 3084.5,3.5C 3084.5,30.8333 3084.5,58.1667 3084.5,85.5C 3057.5,85.5 3030.5,85.5 3003.5,85.5C 3003.5,58.1667 3003.5,30.8333 3003.5,3.5 Z"/></g>
<g><path style="opacity:1" fill="#e0194a" d="M 722.5,4.5 C 750.167,4.5 777.833,4.5 805.5,4.5C 805.667,121.167 805.5,237.834 805,354.5C 804.301,399.715 787.467,437.548 754.5,468C 723.903,490.75 689.403,501.25 651,499.5C 605.062,500.64 565.729,485.307 533,453.5C 528.257,447.679 523.757,441.679 519.5,435.5C 541.5,419.5 563.5,403.5 585.5,387.5C 607.66,415.06 636.327,425.56 671.5,419C 699.331,410.828 715.497,392.328 720,363.5C 720.997,357.539 721.663,351.539 722,345.5C 722.5,231.834 722.667,118.167 722.5,4.5 Z"/></g>
<g><path style="opacity:1" fill="#e0194a" d="M 1206.5,5.5 C 1235.9,4.16823 1265.4,4.16823 1295,5.5C 1327.73,76.6201 1360.73,147.62 1394,218.5C 1427.27,147.62 1460.27,76.6201 1493,5.5C 1522.43,4.17196 1551.93,4.17196 1581.5,5.5C 1532.67,103.833 1483.83,202.167 1435,300.5C 1434.5,365.166 1434.33,429.832 1434.5,494.5C 1407.5,494.5 1380.5,494.5 1353.5,494.5C 1353.67,429.832 1353.5,365.166 1353,300.5C 1304.24,202.019 1255.41,103.686 1206.5,5.5 Z"/></g>
<g><path style="opacity:1" fill="#e0194a" d="M 1946.5,4.5 C 1966.83,4.5 1987.17,4.5 2007.5,4.5C 2068.7,168.089 2129.7,331.756 2190.5,495.5C 2161.5,495.667 2132.5,495.5 2103.5,495C 2092.33,464.335 2081.67,433.502 2071.5,402.5C 2008.5,402.167 1945.5,402.5 1882.5,403.5C 1871.87,433.759 1861.53,464.093 1851.5,494.5C 1822.17,494.5 1792.83,494.5 1763.5,494.5C 1824.49,331.177 1885.49,167.844 1946.5,4.5 Z M 1976.5,131.5 C 1999.41,195.546 2021.74,259.879 2043.5,324.5C 1999.17,324.5 1954.83,324.5 1910.5,324.5C 1932.5,260.178 1954.5,195.845 1976.5,131.5 Z"/></g>
<g><path style="opacity:1" fill="#e0194a" d="M 2827.5,4.5 C 2854.5,4.5 2881.5,4.5 2908.5,4.5C 2908.5,168.167 2908.5,331.833 2908.5,495.5C 2881.5,495.5 2854.5,495.5 2827.5,495.5C 2827.67,481.163 2827.5,466.829 2827,452.5C 2803.57,489.956 2769.74,505.456 2725.5,499C 2677.43,491.937 2646.26,465.104 2632,418.5C 2627.57,403.137 2624.9,387.47 2624,371.5C 2623.07,333.146 2623.4,294.813 2625,256.5C 2627.72,221.586 2640.88,191.42 2664.5,166C 2691.2,143.998 2721.87,135.331 2756.5,140C 2786.9,145.771 2810.4,161.604 2827,187.5C 2827.5,126.501 2827.67,65.5009 2827.5,4.5 Z M 2755.5,214.5 C 2775.48,211.59 2793.48,216.09 2809.5,228C 2820.57,239.536 2826.41,253.369 2827,269.5C 2827.67,302.833 2827.67,336.167 2827,369.5C 2825.12,399.374 2809.62,417.541 2780.5,424C 2738.06,428.885 2713.23,410.385 2706,368.5C 2704.46,340.52 2704.12,312.52 2705,284.5C 2704.34,262.001 2711.84,242.835 2727.5,227C 2735.83,220.398 2745.16,216.231 2755.5,214.5 Z"/></g>
<g><path style="opacity:1" fill="#e0194a" d="M 274.5,6.5 C 343.636,45.9021 412.636,85.5688 481.5,125.5C 482.667,152.827 482.833,180.161 482,207.5C 475.804,200.271 469.971,192.771 464.5,185C 463.551,184.383 462.718,184.549 462,185.5C 460.5,187.833 459,190.167 457.5,192.5C 456.808,191.975 456.308,191.308 456,190.5C 455.826,173.593 455.326,156.759 454.5,140C 429.663,125.414 404.663,111.081 379.5,97C 375.833,93.3333 372.167,89.6667 368.5,86C 347.833,74 327.167,62 306.5,50C 294.716,36.2409 284.049,21.7409 274.5,6.5 Z"/></g>
<g><path style="opacity:1" fill="#e0194a" d="M 240.5,10.5 C 241.586,10.62 242.253,11.2867 242.5,12.5C 245.466,20.3321 246.8,28.3321 246.5,36.5C 239.496,41.3373 232.163,45.6706 224.5,49.5C 217.833,43.8333 211.167,38.1667 204.5,32.5C 216.528,25.1555 228.528,17.8222 240.5,10.5 Z"/></g>
<g><path style="opacity:1" fill="#e0194a" d="M 161.5,55.5 C 162.552,55.3505 163.552,55.5172 164.5,56C 169.122,62.078 173.622,68.2447 178,74.5C 178.617,75.4491 178.451,76.2825 177.5,77C 170.397,80.9679 163.23,84.8013 156,88.5C 144.29,86.1977 132.79,83.1977 121.5,79.5C 134.53,70.9856 147.863,62.9856 161.5,55.5 Z"/></g>
<g><path style="opacity:1" fill="#e0194a" d="M 263.5,504.5 C 261.5,504.5 259.5,504.5 257.5,504.5C 185.224,461.689 112.558,419.355 39.5,377.5C 38.3333,293.835 38.1667,210.169 39,126.5C 65.0911,110.535 91.5911,95.2019 118.5,80.5C 124.833,86.1667 130.833,92.1667 136.5,98.5C 136.023,99.4776 135.357,100.311 134.5,101C 110.838,114.162 87.5048,127.829 64.5,142C 65.8333,215.333 65.8333,288.667 64.5,362C 87.0417,375.103 109.708,387.936 132.5,400.5C 142.52,394.324 151.854,387.157 160.5,379C 175.469,387.273 189.303,397.44 202,409.5C 214.711,427.089 227.545,444.589 240.5,462C 247.958,467.146 255.791,471.646 264,475.5C 270.275,454.178 276.442,432.844 282.5,411.5C 285.016,411.755 287.35,412.589 289.5,414C 310.035,426.699 330.702,439.199 351.5,451.5C 349.334,453.493 347.001,455.327 344.5,457C 317.437,472.86 290.437,488.693 263.5,504.5 Z"/></g>
<g><path style="opacity:1" fill="#e0194a" d="M 1021.5,100.5 C 1046.63,97.9628 1070.97,101.129 1094.5,110C 1123.97,124.415 1141.14,147.915 1146,180.5C 1147.28,191.127 1147.78,201.793 1147.5,212.5C 1125.83,212.5 1104.17,212.5 1082.5,212.5C 1083.57,198.931 1081.41,185.931 1076,173.5C 1067.83,160.08 1055.83,153.746 1040,154.5C 1020,153.995 1006.33,162.995 999,181.5C 993.071,198.818 993.071,216.151 999,233.5C 1006.88,257.264 1018.88,278.598 1035,297.5C 1060.37,324.534 1085.37,351.867 1110,379.5C 1120.08,351.751 1124.92,323.084 1124.5,293.5C 1145.17,293.5 1165.83,293.5 1186.5,293.5C 1187.44,327.789 1182.27,361.122 1171,393.5C 1166.43,405.144 1160.93,416.311 1154.5,427C 1174.98,449.65 1195.65,472.15 1216.5,494.5C 1190.51,495.667 1164.51,495.833 1138.5,495C 1130.67,486.5 1122.83,478 1115,469.5C 1090.87,486.323 1064.04,495.823 1034.5,498C 1006.3,501.35 978.962,498.016 952.5,488C 917.061,470.668 897.894,442.168 895,402.5C 892.661,380.955 894.994,359.955 902,339.5C 912.162,315.504 928.995,297.838 952.5,286.5C 932.698,249.455 927.532,210.455 937,169.5C 946.429,136.405 967.595,114.905 1000.5,105C 1007.59,103.269 1014.59,101.769 1021.5,100.5 Z M 983.5,331.5 C 1013.1,362.938 1042.93,394.271 1073,425.5C 1073.62,426.449 1073.45,427.282 1072.5,428C 1052.95,439.204 1031.95,443.204 1009.5,440C 968.79,433.759 951.623,410.259 958,369.5C 961.21,353.151 969.71,340.484 983.5,331.5 Z"/></g>
<g><path style="opacity:1" fill="#e0194a" d="M 180.5,136.5 C 190.939,144.429 201.273,152.595 211.5,161C 219.197,164.517 226.864,168.017 234.5,171.5C 233.975,172.192 233.308,172.692 232.5,173C 212.472,174.357 192.472,176.024 172.5,178C 196.713,189.607 221.046,200.94 245.5,212C 248.533,213.178 251.199,214.844 253.5,217C 245.628,224.19 237.128,230.69 228,236.5C 223.857,249.095 220.023,261.762 216.5,274.5C 214.345,274.628 212.345,274.128 210.5,273C 198.833,265.333 187.167,257.667 175.5,250C 174.5,249.333 173.5,249.333 172.5,250C 147.64,274.194 122.807,298.361 98,322.5C 101.428,302.365 105.761,282.365 111,262.5C 119.453,251.046 128.286,239.879 137.5,229C 121.694,235.277 105.86,241.777 90,248.5C 89.3333,247.5 89.3333,246.5 90,245.5C 98.7498,230.998 107.75,216.665 117,202.5C 129.571,193.128 142.738,184.628 156.5,177C 141.865,175.383 127.198,174.05 112.5,173C 111.062,172.781 109.729,172.281 108.5,171.5C 121.5,163.333 134.5,155.167 147.5,147C 158.633,143.565 169.633,140.065 180.5,136.5 Z"/></g>
<g><path style="opacity:1" fill="#e0194a" d="M 3294.5,139.5 C 3326.52,136.543 3357.52,140.71 3387.5,152C 3430.48,172.735 3455.32,206.901 3462,254.5C 3462.8,260.485 3463.47,266.485 3464,272.5C 3464.67,303.5 3464.67,334.5 3464,365.5C 3455.35,454.641 3406.19,499.308 3316.5,499.5C 3283.7,500.885 3253.37,493.052 3225.5,476C 3194.14,452.819 3175.98,421.653 3171,382.5C 3170.09,376.527 3169.43,370.527 3169,364.5C 3168.33,333.833 3168.33,303.167 3169,272.5C 3175.15,194.192 3216.98,149.859 3294.5,139.5 Z M 3303.5,217.5 C 3322.46,214.99 3340.12,218.49 3356.5,228C 3371.36,239.879 3379.86,255.379 3382,274.5C 3384.27,306.208 3383.94,337.874 3381,369.5C 3375.7,398.626 3358.54,415.793 3329.5,421C 3301.81,425.666 3279.31,417.166 3262,395.5C 3256.14,385.584 3252.47,374.917 3251,363.5C 3249,333.833 3249,304.167 3251,274.5C 3254.94,242.738 3272.44,223.738 3303.5,217.5 Z"/></g>
<g><path style="opacity:1" fill="#e0194a" d="M 2249.5,144.5 C 2276.83,144.5 2304.17,144.5 2331.5,144.5C 2331.02,221.864 2331.52,299.198 2333,376.5C 2341.33,407.473 2361.67,422.473 2394,421.5C 2426.36,422.68 2446.36,407.68 2454,376.5C 2455.48,299.191 2455.98,221.858 2455.5,144.5C 2482.5,144.5 2509.5,144.5 2536.5,144.5C 2536.5,261.5 2536.5,378.5 2536.5,495.5C 2509.5,495.5 2482.5,495.5 2455.5,495.5C 2455.67,480.163 2455.5,464.83 2455,449.5C 2428.12,493.376 2389.28,509.21 2338.5,497C 2296.24,486.077 2269.08,459.577 2257,417.5C 2253.15,403.754 2250.82,389.754 2250,375.5C 2249.5,298.501 2249.33,221.501 2249.5,144.5 Z"/></g>
<g><path style="opacity:1" fill="#e0194a" d="M 3003.5,144.5 C 3030.5,144.5 3057.5,144.5 3084.5,144.5C 3084.5,261.5 3084.5,378.5 3084.5,495.5C 3057.5,495.5 3030.5,495.5 3003.5,495.5C 3003.5,378.5 3003.5,261.5 3003.5,144.5 Z"/></g>
<g><path style="opacity:1" fill="#e0194a" d="M 236.5,241.5 C 255.836,243.426 275.169,245.426 294.5,247.5C 294.509,249.308 294.009,250.975 293,252.5C 289.034,257.467 284.701,262.134 280,266.5C 280.512,272.73 281.679,278.897 283.5,285C 281.23,290.753 277.897,295.586 273.5,299.5C 258.282,293.392 242.949,287.559 227.5,282C 225.884,281.385 224.551,280.385 223.5,279C 227.932,266.537 232.266,254.037 236.5,241.5 Z"/></g>
<g><path style="opacity:1" fill="#e0194a" d="M 173.5,261.5 C 188.151,269.248 202.317,277.915 216,287.5C 229.397,308.57 242.397,329.903 255,351.5C 261.893,368.846 268.393,386.346 274.5,404C 269.051,424.339 263.218,444.505 257,464.5C 240.568,444.737 224.901,424.404 210,403.5C 207.167,400.667 204.333,397.833 201.5,395C 188.388,386.221 175.555,377.055 163,367.5C 160.333,360.167 157.667,352.833 155,345.5C 147.185,355.155 140.352,365.489 134.5,376.5C 133.726,377.711 132.893,377.711 132,376.5C 130.057,362.18 128.224,347.847 126.5,333.5C 127.881,323.092 129.715,312.759 132,302.5C 145.728,288.604 159.562,274.938 173.5,261.5 Z"/></g>
<g><path style="opacity:1" fill="#e0194a" d="M 480.5,268.5 C 481.833,286.321 482.5,304.488 482.5,323C 482.167,341.167 481.833,359.333 481.5,377.5C 443.997,399.419 406.33,421.086 368.5,442.5C 368.167,442 367.833,441.5 367.5,441C 372.804,429.559 377.97,418.059 383,406.5C 406.087,391.035 429.92,376.702 454.5,363.5C 455.167,338.5 455.833,313.5 456.5,288.5C 464.836,282.157 472.836,275.491 480.5,268.5 Z"/></g>
<g><path style="opacity:1" fill="#e0194a" d="M 231.5,293.5 C 247.108,298.869 262.608,304.536 278,310.5C 282.473,306.191 285.973,301.191 288.5,295.5C 289.365,294.417 290.365,294.251 291.5,295C 310.648,312.314 329.314,330.147 347.5,348.5C 343.152,355.193 338.318,361.526 333,367.5C 308.85,357.671 284.684,347.838 260.5,338C 257.979,335.78 255.812,333.28 254,330.5C 246.247,318.264 238.747,305.93 231.5,293.5 Z"/></g>
<g><path style="opacity:1" fill="#e0194a" d="M 265.5,350.5 C 289.257,359.543 312.924,368.877 336.5,378.5C 341.877,372.617 346.711,366.284 351,359.5C 352.183,358.269 353.349,358.269 354.5,359.5C 360.664,375.492 366.331,391.658 371.5,408C 366.536,418.762 361.703,429.595 357,440.5C 354.353,441.464 351.853,440.964 349.5,439C 327.833,426.167 306.167,413.333 284.5,400.5C 277.377,384.131 271.044,367.464 265.5,350.5 Z"/></g>
</svg>
