<svg xmlns="http://www.w3.org/2000/svg" version="1.1" width="848" height="829">
<path d="M0.0,0.0 L12.0,2.0 L22.0,9.0 L28.0,18.0 L29.0,21.0 L29.0,37.0 L23.0,49.0 L16.0,59.0 L4.0,81.0 L-8.0,107.0 L-17.0,131.0 L-25.0,163.0 L-29.0,184.0 L-31.0,199.0 L-33.0,240.0 L-34.0,243.0 L-40.0,243.0 L-40.0,270.0 L-37.0,293.0 L-31.0,320.0 L-23.0,346.0 L-15.0,367.0 L0.0,397.0 L12.0,416.0 L22.0,430.0 L35.0,446.0 L46.0,458.0 L69.0,481.0 L91.0,500.0 L109.0,512.0 L135.0,526.0 L154.0,535.0 L178.0,544.0 L204.0,551.0 L231.0,556.0 L247.0,558.0 L278.0,559.0 L304.0,557.0 L328.0,553.0 L354.0,546.0 L375.0,538.0 L400.0,527.0 L403.0,526.0 L415.0,526.0 L425.0,530.0 L432.0,536.0 L437.0,545.0 L438.0,548.0 L438.0,563.0 L433.0,575.0 L418.0,599.0 L405.0,617.0 L384.0,644.0 L375.0,655.0 L368.0,665.0 L358.0,675.0 L356.0,675.0 L356.0,677.0 L354.0,677.0 L354.0,679.0 L352.0,679.0 L352.0,681.0 L338.0,692.0 L321.0,703.0 L306.0,713.0 L284.0,726.0 L263.0,737.0 L231.0,750.0 L204.0,758.0 L179.0,765.0 L158.0,769.0 L141.0,771.0 L125.0,772.0 L107.0,772.0 L64.0,769.0 L34.0,764.0 L8.0,758.0 L-14.0,751.0 L-29.0,745.0 L-37.0,743.0 L-39.0,742.0 L-39.0,740.0 L-46.0,739.0 L-62.0,731.0 L-89.0,716.0 L-93.0,714.0 L-93.0,712.0 L-98.0,711.0 L-108.0,704.0 L-110.0,703.0 L-110.0,701.0 L-115.0,699.0 L-149.0,670.0 L-151.0,669.0 L-151.0,667.0 L-155.0,665.0 L-165.0,655.0 L-171.0,645.0 L-180.0,636.0 L-191.0,622.0 L-204.0,605.0 L-213.0,592.0 L-226.0,570.0 L-238.0,547.0 L-247.0,527.0 L-258.0,497.0 L-265.0,473.0 L-272.0,440.0 L-272.0,436.0 L-275.0,437.0 L-275.0,434.0 L-279.0,435.0 L-283.0,430.0 L-286.0,413.0 L-288.0,399.0 L-289.0,384.0 L-289.0,359.0 L-287.0,333.0 L-281.0,295.0 L-274.0,267.0 L-264.0,237.0 L-254.0,213.0 L-244.0,194.0 L-238.0,186.0 L-234.0,178.0 L-227.0,172.0 L-222.0,168.0 L-221.0,163.0 L-219.0,162.0 L-216.0,161.0 L-215.0,155.0 L-212.0,155.0 L-211.0,151.0 L-204.0,144.0 L-203.0,142.0 L-201.0,142.0 L-201.0,140.0 L-199.0,140.0 L-197.0,136.0 L-186.0,122.0 L-184.0,122.0 L-182.0,118.0 L-170.0,105.0 L-144.0,79.0 L-112.0,54.0 L-94.0,42.0 L-75.0,31.0 L-48.0,17.0 L-21.0,6.0 L-6.0,1.0 Z" fill="#70CEF0" transform="translate(350,28)" />
<path d="M0.0,0.0 L2.0,1.0 L3.0,5.0 L0.0,12.0 L-2.0,16.0 L-5.0,15.0 L-5.0,17.0 L-8.0,19.0 L-13.0,24.0 L-21.0,44.0 L-24.0,52.0 L-28.0,72.0 L-32.0,114.0 L-32.0,175.0 L-30.0,198.0 L-27.0,215.0 L-20.0,240.0 L-17.0,245.0 L-10.0,270.0 L-3.0,289.0 L5.0,305.0 L17.0,328.0 L26.0,343.0 L38.0,360.0 L46.0,370.0 L57.0,383.0 L64.0,391.0 L78.0,406.0 L90.0,418.0 L92.0,419.0 L92.0,421.0 L96.0,423.0 L111.0,436.0 L128.0,449.0 L146.0,462.0 L184.0,484.0 L208.0,495.0 L233.0,504.0 L259.0,511.0 L285.0,516.0 L310.0,519.0 L329.0,520.0 L358.0,520.0 L386.0,518.0 L403.0,515.0 L406.0,516.0 L383.0,539.0 L372.0,548.0 L354.0,562.0 L324.0,582.0 L307.0,591.0 L286.0,599.0 L257.0,608.0 L233.0,613.0 L206.0,616.0 L161.0,616.0 L129.0,612.0 L104.0,606.0 L68.0,594.0 L41.0,582.0 L20.0,570.0 L9.0,563.0 L-9.0,550.0 L-21.0,541.0 L-32.0,531.0 L-40.0,524.0 L-55.0,509.0 L-64.0,498.0 L-75.0,485.0 L-88.0,467.0 L-100.0,448.0 L-110.0,430.0 L-121.0,406.0 L-130.0,382.0 L-137.0,357.0 L-144.0,323.0 L-149.0,284.0 L-151.0,279.0 L-153.0,278.0 L-153.0,276.0 L-155.0,276.0 L-155.0,281.0 L-156.0,281.0 L-156.0,232.0 L-153.0,216.0 L-150.0,209.0 L-148.0,209.0 L-147.0,204.0 L-140.0,191.0 L-135.0,178.0 L-127.0,162.0 L-115.0,135.0 L-107.0,119.0 L-100.0,106.0 L-88.0,87.0 L-76.0,71.0 L-67.0,60.0 L-56.0,47.0 L-39.0,30.0 L-13.0,9.0 Z" fill="#FEFEFE" transform="translate(278,126)" />
<path d="M0.0,0.0 L5.0,3.0 L3.0,5.0 L-1.0,1.0 Z" fill="#94CDE1" transform="translate(250,735)" />
<path d="M0.0,0.0 L2.0,2.0 L-1.0,2.0 Z" fill="#A2CDDD" transform="translate(250,735)" />
</svg>